<svg fill="#000" id="maintenance" viewBox="0 0 512 512" version="1.1" xml:space="preserve" xmlns="http://www.w3.org/2000/svg"><g id="Wrench_1_"><path d="M339.83 19.865h-1.123c-16.503 0-29.93 13.427-29.93 29.93v282.986c0 18.066-6.542 36.064-18.42 50.678-9.611 11.828-14.904 26.749-14.904 42.016 0 36.757 29.902 66.66 66.659 66.66h9.612l-24.221-49.537 5-16.465h23.588l20.346 47.473 6.154-4.911c.869-.692 8.646-7.226 14.402-23.131.277-.765.541-1.532.795-2.304 8.338-25.415 2.643-54.321-14.865-75.438-5.806-7.004-9.824-15.23-11.621-23.791a72.545 72.545 0 01-1.543-14.862V49.795c.001-16.503-13.425-29.93-29.929-29.93zm-19.053 92.185h12.797v190.988h12V112.05h12.186v217.119c0 3.37.229 6.743.632 10.095h-37.876c.16-2.156.262-4.318.262-6.482V112.05zm36.983-12h-36.982v-4.416h36.982v4.416zm-19.053-68.185h1.123c9.887 0 17.93 8.043 17.93 17.93v33.838h-36.982V49.795c-.001-9.887 8.042-17.93 17.929-17.93zm34.979 343.615c14.898 17.97 19.766 42.508 12.701 64.037a66.863 66.863 0 01-.676 1.961c-1.686 4.658-3.559 8.297-5.257 11.037l-16.449-38.383h-40.399l-8.955 29.496 17.395 35.576c-25.348-4.738-44.592-27.029-44.592-53.73 0-12.52 4.338-24.752 12.217-34.447 9.553-11.752 16.078-25.447 19.129-39.764h41.963c2.546 8.726 6.955 17.02 12.923 24.217z"/><path d="M339.574 65.773c8.777 0 15.918-7.141 15.918-15.918 0-8.778-7.141-15.919-15.918-15.919-8.778 0-15.92 7.141-15.92 15.919 0 8.777 7.142 15.918 15.92 15.918zm0-19.837a3.923 3.923 0 013.918 3.919 3.922 3.922 0 01-3.918 3.918 3.923 3.923 0 01-3.92-3.918 3.923 3.923 0 013.92-3.919zm-6 269.097h12v19.572h-12zm-143.99 131.194c-8.778 0-15.919 7.141-15.919 15.919s7.141 15.919 15.919 15.919 15.919-7.141 15.919-15.919-7.141-15.919-15.919-15.919zm0 19.837c-2.161 0-3.919-1.758-3.919-3.919s1.758-3.919 3.919-3.919 3.919 1.758 3.919 3.919-1.757 3.919-3.919 3.919z"/><path d="M243.602 121.333c6.411-10.453 9.799-22.489 9.799-34.808 0-36.757-29.903-66.66-66.66-66.66h-9.612l24.22 49.537-4.999 16.464h-23.589l-20.346-47.472-6.155 4.912c-.857.684-20.128 16.623-20.473 60.829h-15.353v28.105l5.321 3.066a85.988 85.988 0 0112.207 8.46c.915.756 1.823 1.54 2.694 2.323 18.073 16.302 28.438 39.611 28.438 63.95v252.164c0 16.504 13.428 29.932 29.932 29.932h1.118c16.505 0 29.932-13.428 29.932-29.932V205.76c.001-30.141 8.135-59.335 23.526-84.427zm-95.188-61.814l13.09 30.543-17.362 14.073h-6.362c.199-23.148 6.067-37.183 10.634-44.616zm-9.727 77.653c-1-.899-2.035-1.792-3.065-2.644a97.822 97.822 0 00-13.187-9.222v-9.171h25.958l22.539-18.269h34.316l8.955-29.495-17.395-35.577c25.347 4.738 44.593 27.029 44.593 53.731a54.533 54.533 0 01-8.029 28.534c-16.548 26.98-25.295 58.344-25.296 90.7v194.192h-12.492V208.962h-12v190.989h-12.49V210.04c.001-27.731-11.809-54.288-32.407-72.868zm32.408 274.779h36.982v4.415h-36.982v-4.415zm19.05 68.184h-1.118c-9.888 0-17.932-8.045-17.932-17.932v-33.837h36.982v33.837c0 9.887-8.045 17.932-17.932 17.932z"/><path d="M207.951 111.13h-48.695v34.698h48.695V111.13zm-36.695 12h6.348v10.698h-6.348V123.13zm24.695 10.698h-6.347V123.13h6.347v10.698zm-12.367 43.567h12v19.573h-12z"/></g></svg>