<svg id="close" viewBox="0 0 18 18" xmlns="http://www.w3.org/2000/svg">
<path d="M16.0416 0.485285L8.97056 7.55635L1.89949 0.485285C1.71196 0.297748 1.4576 0.192392 1.19239 0.192391C0.927171 0.192391 0.672818 0.297748 0.485281 0.485285C0.297745 0.672821 0.192388 0.927175 0.192388 1.19239C0.192388 1.45761 0.297745 1.71196 0.485281 1.8995L7.55635 8.97057L0.485281 16.0416C0.297745 16.2292 0.192388 16.4835 0.192388 16.7487C0.192388 17.014 0.297745 17.2683 0.485281 17.4558C0.672818 17.6434 0.927171 17.7487 1.19239 17.7487C1.4576 17.7487 1.71196 17.6434 1.89949 17.4558L8.97056 10.3848L16.0416 17.4558C16.2292 17.6434 16.4835 17.7487 16.7487 17.7487C17.014 17.7487 17.2683 17.6434 17.4558 17.4558C17.6434 17.2683 17.7487 17.014 17.7487 16.7487C17.7487 16.4835 17.6434 16.2292 17.4558 16.0416L10.3848 8.97057L17.4558 1.8995C17.6434 1.71196 17.7487 1.45761 17.7487 1.19239C17.7487 0.927174 17.6434 0.672821 17.4558 0.485285C17.2683 0.297748 17.014 0.192391 16.7487 0.192391C16.4835 0.192391 16.2292 0.297748 16.0416 0.485285Z"/>
</svg>
