<svg version="1.0" xmlns="http://www.w3.org/2000/svg"
viewBox="0 0 64.000000 64.000000"
 preserveAspectRatio="xMidYMid meet">

<g transform="translate(0.000000,64.000000) scale(0.100000,-0.100000)">
<path d="M50 570 c-27 -27 -25 -64 5 -88 23 -18 25 -27 25 -96 l0 -76 94 0
c92 0 95 -1 125 -31 38 -38 45 -103 11 -114 -45 -14 -33 -99 15 -111 65 -16
106 75 50 112 -60 39 -6 144 75 144 30 0 40 -5 45 -19 3 -11 15 -23 26 -26 30
-10 27 -78 -6 -99 -33 -22 -35 -78 -3 -100 30 -21 54 -20 78 4 27 27 25 64 -5
88 -34 27 -34 82 0 116 32 32 32 60 0 92 -34 34 -34 89 0 116 30 24 32 61 5
88 -24 24 -48 25 -78 4 -32 -22 -30 -78 3 -100 33 -21 36 -89 6 -99 -11 -3
-23 -15 -26 -26 -5 -14 -15 -19 -45 -19 -81 0 -135 105 -75 144 56 37 15 128
-50 112 -48 -12 -60 -97 -15 -111 34 -11 27 -76 -11 -114 -29 -30 -34 -31
-115 -31 l-84 0 0 64 c0 57 3 65 25 80 33 22 35 78 3 100 -30 21 -54 20 -78
-4z m64 -13 c26 -19 18 -61 -12 -65 -44 -7 -67 32 -36 62 19 19 25 20 48 3z
m256 -1 c19 -23 8 -61 -18 -64 -45 -7 -72 46 -34 67 24 14 38 13 52 -3z m204
-2 c31 -30 8 -69 -36 -62 -30 4 -38 46 -12 65 23 17 29 16 48 -3z m-206 -203
c8 -5 12 -21 10 -37 -3 -32 -38 -45 -64 -24 -40 34 9 90 54 61z m210 -3 c30
-30 0 -75 -43 -64 -41 11 -29 76 15 76 9 0 21 -5 28 -12z m-200 -229 c4 -36
-21 -55 -53 -41 -44 20 -24 76 25 70 18 -2 26 -10 28 -29z m202 16 c14 -17 5
-51 -16 -59 -35 -13 -73 41 -47 67 12 12 50 7 63 -8z"/>
</g>
</svg>
