<svg id="brake" xmlns="http://www.w3.org/2000/svg" viewBox="0 0 512.009 512.009" xml:space="preserve"><path d="M277.337 256.007c11.776 0 21.333-9.557 21.333-21.333s-9.557-21.333-21.333-21.333-21.333 9.557-21.333 21.333 9.557 21.333 21.333 21.333zm0 42.667c-11.776 0-21.333 9.557-21.333 21.333s9.557 21.333 21.333 21.333 21.333-9.557 21.333-21.333-9.557-21.333-21.333-21.333z"/><path d="M277.337 149.34c-70.683 0-128 57.317-128 128s57.317 128 128 128 128-57.317 128-128-57.317-128-128-128zm0 213.334c-47.119 0-85.333-38.214-85.333-85.333s38.214-85.333 85.333-85.333 85.333 38.214 85.333 85.333-38.214 85.333-85.333 85.333z"/><path d="M307.08 44.344V33.679c0-19.406-16.295-34.56-35.517-33.64C124.746 7.211 7.202 124.762.054 271.554c-.98 19.189 14.2 35.512 33.617 35.512h10.664C59.046 422.938 157.98 512.009 277.204 512.009c129.674 0 234.795-105.128 234.795-234.816 0-119.226-89.049-218.147-204.919-232.849zm-42.675-1.063v42.914a202.727 202.727 0 00-15.427 2.23c-60.921 11.163-111.992 49.574-140.217 102.267-11.965 22.334-19.826 47.232-22.597 73.707H43.296C53.479 146.906 146.943 53.453 264.405 43.281zm12.8 426.061c-95.683 0-175.418-70.121-189.795-162.261h7.075a33.71 33.71 0 0028.984-16.465 32.858 32.858 0 004.564-14.865c1.85-30.291 12.134-58.188 28.543-81.408 22.705-32.124 57.14-55.289 97.251-63.412a159.85 159.85 0 0121.935-2.87c4.989-.3 9.65-1.697 13.773-3.941.072-.039.141-.082.212-.122.383-.212.764-.427 1.137-.654.252-.153.497-.317.745-.476.188-.121.38-.237.565-.361.316-.212.623-.435.931-.658.111-.081.227-.156.337-.238.316-.235.623-.48.93-.725.097-.077.197-.15.293-.229.258-.211.506-.431.757-.649.139-.121.283-.237.42-.36.147-.132.286-.27.43-.405 6.661-6.195 10.787-15.058 10.787-24.742v-7.085c92.143 14.361 162.253 94.086 162.253 189.778.001 106.123-86.018 192.148-192.127 192.148z"/><path d="M234.67 256.007c-11.776 0-21.333 9.557-21.333 21.333s9.557 21.333 21.333 21.333 21.333-9.557 21.333-21.333-9.557-21.333-21.333-21.333zm85.334 0c-11.776 0-21.333 9.557-21.333 21.333s9.557 21.333 21.333 21.333 21.333-9.557 21.333-21.333-9.557-21.333-21.333-21.333z"/></svg>