<svg id="welding" fill="#000" version="1.1" xmlns="http://www.w3.org/2000/svg" viewBox="0 0 350 350" xml:space="preserve"><path d="M86.78 318h110.437c10.907 0 19.781-8.874 19.781-19.781V107.98c0-10.907-8.874-19.781-19.781-19.781H86.78c-10.907 0-19.781 8.874-19.781 19.781v190.238c0 10.908 8.874 19.782 19.781 19.782zM74.999 107.98c0-6.496 5.285-11.781 11.781-11.781h110.437c6.496 0 11.781 5.285 11.781 11.781v190.238c0 6.496-5.285 11.781-11.781 11.781H86.78c-6.496 0-11.781-5.285-11.781-11.781V107.98z"/><path d="M84.999 145.039h57.982a4 4 0 004-4v-26.18a4 4 0 00-4-4H84.999a4 4 0 00-4 4v26.18a4 4 0 004 4zm4-26.18h49.982v18.18H88.999v-18.18zm72.5 0h37.742a4 4 0 000-8h-37.742a4 4 0 000 8zm0 13.09h37.742a4 4 0 000-8h-37.742a4 4 0 000 8zm0 13.09h37.742a4 4 0 000-8h-37.742a4 4 0 000 8zm16 102.961c11.579 0 21-9.421 21-21s-9.421-21-21-21c-11.58 0-21 9.421-21 21s9.42 21 21 21zm0-34c7.168 0 13 5.832 13 13s-5.832 13-13 13-13-5.832-13-13 5.831-13 13-13z"/><circle cx="177.499" cy="227" r="5.845"/><circle cx="177.499" cy="279" r="5.845"/><path d="M177.499 300c11.579 0 21-9.421 21-21s-9.421-21-21-21c-11.58 0-21 9.421-21 21s9.42 21 21 21zm0-34c7.168 0 13 5.832 13 13s-5.832 13-13 13-13-5.832-13-13 5.831-13 13-13zm-32 9h-6v-6a4 4 0 00-8 0v6h-6a4 4 0 000 8h6v6a4 4 0 008 0v-6h6a4 4 0 000-8zm-20-52a4 4 0 000 8h20a4 4 0 000-8h-20z"/><path d="M293.001 7h-8.369V4a4 4 0 00-8 0v3h-6.5V4a4 4 0 00-8 0v3h-122.13a4 4 0 000 8h122.13v6.906h-.27a4 4 0 00-4 4v117.832a4 4 0 004 4h7.52v86.48c0 19.54-15.897 35.437-35.438 35.437h-2.946V55a4 4 0 00-4-4h-170a4 4 0 00-4 4v273a4 4 0 004 4h8.5v14a4 4 0 004 4h17a4 4 0 004-4v-14h103v14a4 4 0 004 4h17a4 4 0 004-4v-14h8.5a4 4 0 004-4v-50.344h2.946c23.951 0 43.438-19.486 43.438-43.437v-86.48h7.52a4 4 0 004-4V25.906a4 4 0 00-4-4h-.27V15h8.369a4 4 0 000-8zM82.499 342h-9v-10h9v10zm128 0h-9v-10h9v10zm12.5-18h-162V59h162v265zm57.903-213.8h-15.039v-7h15.039v7zm-15.039 8h15.039v7h-15.039v-7zm15.039-88.294V95.2h-15.039V29.906h15.039zm-15.039 109.832V133.2h15.039v6.538h-15.039zm10.769-117.832h-6.5V15h6.5v6.906z"/></svg>