<?xml version="1.0" encoding="utf-8"?><svg xmlns="http://www.w3.org/2000/svg" xmlns:xlink="http://www.w3.org/1999/xlink"><symbol viewBox="0 0 512.009 512.009" xml:space="preserve" id="brake" xmlns="http://www.w3.org/2000/svg"><path d="M277.337 256.007c11.776 0 21.333-9.557 21.333-21.333s-9.557-21.333-21.333-21.333-21.333 9.557-21.333 21.333 9.557 21.333 21.333 21.333zM277.337 298.674c-11.776 0-21.333 9.557-21.333 21.333s9.557 21.333 21.333 21.333 21.333-9.557 21.333-21.333-9.557-21.333-21.333-21.333z"/><path d="M277.337 149.34c-70.683 0-128 57.317-128 128s57.317 128 128 128 128-57.317 128-128-57.317-128-128-128zm0 213.334c-47.119 0-85.333-38.214-85.333-85.333s38.214-85.333 85.333-85.333 85.333 38.214 85.333 85.333-38.214 85.333-85.333 85.333z"/><path d="M307.08 44.344V33.679c0-19.406-16.295-34.56-35.517-33.64C124.746 7.211 7.202 124.762.054 271.554c-.98 19.189 14.2 35.512 33.617 35.512h10.664C59.046 422.938 157.98 512.009 277.204 512.009c129.674 0 234.795-105.128 234.795-234.816 0-119.226-89.049-218.147-204.919-232.849zm-42.675-1.063v42.914a202.727 202.727 0 0 0-15.427 2.23c-60.921 11.163-111.992 49.574-140.217 102.267-11.965 22.334-19.826 47.232-22.597 73.707H43.296C53.479 146.906 146.943 53.453 264.405 43.281zm12.8 426.061c-95.683 0-175.418-70.121-189.795-162.261h7.075a33.71 33.71 0 0 0 28.984-16.465 32.858 32.858 0 0 0 4.564-14.865c1.85-30.291 12.134-58.188 28.543-81.408 22.705-32.124 57.14-55.289 97.251-63.412a159.85 159.85 0 0 1 21.935-2.87c4.989-.3 9.65-1.697 13.773-3.941.072-.039.141-.082.212-.122.383-.212.764-.427 1.137-.654.252-.153.497-.317.745-.476.188-.121.38-.237.565-.361.316-.212.623-.435.931-.658.111-.081.227-.156.337-.238.316-.235.623-.48.93-.725.097-.077.197-.15.293-.229.258-.211.506-.431.757-.649.139-.121.283-.237.42-.36.147-.132.286-.27.43-.405 6.661-6.195 10.787-15.058 10.787-24.742v-7.085c92.143 14.361 162.253 94.086 162.253 189.778.001 106.123-86.018 192.148-192.127 192.148z"/><path d="M234.67 256.007c-11.776 0-21.333 9.557-21.333 21.333s9.557 21.333 21.333 21.333 21.333-9.557 21.333-21.333-9.557-21.333-21.333-21.333zM320.004 256.007c-11.776 0-21.333 9.557-21.333 21.333s9.557 21.333 21.333 21.333 21.333-9.557 21.333-21.333-9.557-21.333-21.333-21.333z"/></symbol><symbol viewBox="0 0 24 24" id="cellphone" xmlns="http://www.w3.org/2000/svg"><path d="M4.827 10.387a20.198 20.198 0 0 0 8.786 8.786l2.934-2.933c.36-.36.893-.48 1.36-.32a15.21 15.21 0 0 0 4.76.76c.733 0 1.333.6 1.333 1.333v4.654C24 23.4 23.4 24 22.667 24 10.147 24 0 13.853 0 1.333 0 .6.6 0 1.333 0H6c.733 0 1.333.6 1.333 1.333 0 1.667.267 3.267.76 4.76.147.467.04.987-.333 1.36l-2.933 2.934Z"/></symbol><symbol viewBox="0 0 18 18" id="close" xmlns="http://www.w3.org/2000/svg"><path d="M16.042.485 8.97 7.556 1.899.486A1 1 0 1 0 .485 1.898l7.071 7.072-7.07 7.07a1 1 0 0 0 1.413 1.415l7.072-7.071 7.07 7.07a1 1 0 1 0 1.415-1.413L10.385 8.97l7.07-7.072A1 1 0 1 0 16.043.485Z"/></symbol><symbol viewBox="0 0 24 24" id="electric" xmlns="http://www.w3.org/2000/svg"><defs><style>.dcls-1{fill:none;stroke:#020202;stroke-miterlimit:10;stroke-width:1.3px}</style></defs><path class="dcls-1" d="M15.82 1.5h1.91v5.73h-1.91a1.91 1.91 0 0 1-1.91-1.91V3.41a1.91 1.91 0 0 1 1.91-1.91ZM21.55 2.45h-3.82M21.55 6.27h-3.82M11.04 11.04l-1.9 2.87h1.9v-2.87zM12 15.82l1.91-2.86H12v2.86z"/><path class="dcls-1" d="M20.59 13.43a9.07 9.07 0 1 1-9.07-9.07h2.39"/></symbol><symbol viewBox="0 0 24 24" fill="none" id="engine" xmlns="http://www.w3.org/2000/svg"><path d="M14 8V5m-3 0h6M6 12H3m0-3v6m18-4v8M9 12h.01M12 12h.01M15 12h.01M6 8v8h2l2 3h8v-9l-2-2H6Z" stroke="#000" stroke-width="2" stroke-linecap="round" stroke-linejoin="round"/></symbol><symbol viewBox="0 0 24 24" id="fuel" xmlns="http://www.w3.org/2000/svg"><path d="M22 10.232v5.651c0 2.884 0 4.326-.879 5.221C20.243 22 18.828 22 16 22H8c-2.828 0-4.243 0-5.121-.896C2 20.21 2 18.767 2 15.884v-2.797c0-2.096 0-3.145.553-3.94.554-.795 1.524-1.14 3.465-1.833l8-2.855c3.636-1.297 5.454-1.946 6.718-1.031.688.497 1.001 1.305 1.144 2.572" stroke="#1C274C" stroke-width="1.5" stroke-linecap="round"/><path d="M9 14c0-1.414 0-2.121.44-2.56C9.878 11 10.585 11 12 11c1.414 0 2.121 0 2.56.44.44.439.44 1.146.44 2.56 0 1.414 0 2.121-.44 2.56-.439.44-1.146.44-2.56.44-1.414 0-2.121 0-2.56-.44C9 16.122 9 15.415 9 14Z" stroke="#1C274C" stroke-width="1.5"/><path d="m15 11 1-1M9 11l-1-1M15 17l1 1M9 17l-1 1M5 7.06c0-1.305 0-1.957.338-2.407.087-.116.189-.22.302-.308C6.08 4 6.72 4 8 4h.818c.507 0 .761 0 .97.057a1.653 1.653 0 0 1 1.156 1.18" stroke="#1C274C" stroke-width="1.5" stroke-linecap="round"/></symbol><symbol viewBox="0 0 14 9" fill="none" preserveAspectRatio="none" id="icon__arrow"><path d="m1 1 6 6 6-6" stroke="currentColor" stroke-linecap="round"/></symbol><symbol viewBox="0 0 512 512" xml:space="preserve" id="maintenance" xmlns="http://www.w3.org/2000/svg"><path d="M339.83 19.865h-1.123c-16.503 0-29.93 13.427-29.93 29.93v282.986c0 18.066-6.542 36.064-18.42 50.678-9.611 11.828-14.904 26.749-14.904 42.016 0 36.757 29.902 66.66 66.659 66.66h9.612l-24.221-49.537 5-16.465h23.588l20.346 47.473 6.154-4.911c.869-.692 8.646-7.226 14.402-23.131.277-.765.541-1.532.795-2.304 8.338-25.415 2.643-54.321-14.865-75.438-5.806-7.004-9.824-15.23-11.621-23.791a72.545 72.545 0 0 1-1.543-14.862V49.795c.001-16.503-13.425-29.93-29.929-29.93zm-19.053 92.185h12.797v190.988h12V112.05h12.186v217.119c0 3.37.229 6.743.632 10.095h-37.876c.16-2.156.262-4.318.262-6.482V112.05zm36.983-12h-36.982v-4.416h36.982v4.416zm-19.053-68.185h1.123c9.887 0 17.93 8.043 17.93 17.93v33.838h-36.982V49.795c-.001-9.887 8.042-17.93 17.929-17.93zm34.979 343.615c14.898 17.97 19.766 42.508 12.701 64.037a66.863 66.863 0 0 1-.676 1.961c-1.686 4.658-3.559 8.297-5.257 11.037l-16.449-38.383h-40.399l-8.955 29.496 17.395 35.576c-25.348-4.738-44.592-27.029-44.592-53.73 0-12.52 4.338-24.752 12.217-34.447 9.553-11.752 16.078-25.447 19.129-39.764h41.963c2.546 8.726 6.955 17.02 12.923 24.217z"/><path d="M339.574 65.773c8.777 0 15.918-7.141 15.918-15.918 0-8.778-7.141-15.919-15.918-15.919-8.778 0-15.92 7.141-15.92 15.919 0 8.777 7.142 15.918 15.92 15.918zm0-19.837a3.923 3.923 0 0 1 3.918 3.919 3.922 3.922 0 0 1-3.918 3.918 3.923 3.923 0 0 1-3.92-3.918 3.923 3.923 0 0 1 3.92-3.919zM333.574 315.033h12v19.572h-12zM189.584 446.227c-8.778 0-15.919 7.141-15.919 15.919s7.141 15.919 15.919 15.919 15.919-7.141 15.919-15.919-7.141-15.919-15.919-15.919zm0 19.837c-2.161 0-3.919-1.758-3.919-3.919s1.758-3.919 3.919-3.919 3.919 1.758 3.919 3.919-1.757 3.919-3.919 3.919z"/><path d="M243.602 121.333c6.411-10.453 9.799-22.489 9.799-34.808 0-36.757-29.903-66.66-66.66-66.66h-9.612l24.22 49.537-4.999 16.464h-23.589l-20.346-47.472-6.155 4.912c-.857.684-20.128 16.623-20.473 60.829h-15.353v28.105l5.321 3.066a85.988 85.988 0 0 1 12.207 8.46c.915.756 1.823 1.54 2.694 2.323 18.073 16.302 28.438 39.611 28.438 63.95v252.164c0 16.504 13.428 29.932 29.932 29.932h1.118c16.505 0 29.932-13.428 29.932-29.932V205.76c.001-30.141 8.135-59.335 23.526-84.427zm-95.188-61.814 13.09 30.543-17.362 14.073h-6.362c.199-23.148 6.067-37.183 10.634-44.616zm-9.727 77.653c-1-.899-2.035-1.792-3.065-2.644a97.822 97.822 0 0 0-13.187-9.222v-9.171h25.958l22.539-18.269h34.316l8.955-29.495-17.395-35.577c25.347 4.738 44.593 27.029 44.593 53.731a54.533 54.533 0 0 1-8.029 28.534c-16.548 26.98-25.295 58.344-25.296 90.7v194.192h-12.492V208.962h-12v190.989h-12.49V210.04c.001-27.731-11.809-54.288-32.407-72.868zm32.408 274.779h36.982v4.415h-36.982v-4.415zm19.05 68.184h-1.118c-9.888 0-17.932-8.045-17.932-17.932v-33.837h36.982v33.837c0 9.887-8.045 17.932-17.932 17.932z"/><path d="M207.951 111.13h-48.695v34.698h48.695V111.13zm-36.695 12h6.348v10.698h-6.348V123.13zm24.695 10.698h-6.347V123.13h6.347v10.698zM183.584 177.395h12v19.573h-12z"/></symbol><symbol viewBox="796 796 200 200" xml:space="preserve" id="map" xmlns="http://www.w3.org/2000/svg"><path d="M970.135 870.134C970.135 829.191 936.943 796 896 796c-40.944 0-74.135 33.191-74.135 74.134 0 16.217 5.221 31.206 14.055 43.41l-.019.003L896 996l60.099-82.453-.019-.003c8.832-12.204 14.055-27.193 14.055-43.41zM896 900.006c-16.497 0-29.871-13.374-29.871-29.872s13.374-29.871 29.871-29.871 29.871 13.373 29.871 29.871-13.374 29.872-29.871 29.872z"/></symbol><symbol viewBox="0 0 48 48" id="telegram" xmlns="http://www.w3.org/2000/svg"><path d="M40.83 8.48c1.14 0 2 1 1.54 2.86l-5.58 26.3c-.39 1.87-1.52 2.32-3.08 1.45L20.4 29.26a.4.4 0 0 1 0-.65l15.37-13.88c.7-.62-.15-.92-1.07-.36L15.41 26.54a.46.46 0 0 1-.4.05L6.82 24C5 23.47 5 22.22 7.23 21.33L40 8.69a2.16 2.16 0 0 1 .83-.21Z" style="stroke-linecap:round;stroke-linejoin:round"/></symbol><symbol viewBox="0 0 64 64" id="transmission" xmlns="http://www.w3.org/2000/svg"><path d="M5 7c-2.7 2.7-2.5 6.4.5 8.8C7.8 17.6 8 18.5 8 25.4V33h9.4c9.2 0 9.5.1 12.5 3.1 3.8 3.8 4.5 10.3 1.1 11.4-4.5 1.4-3.3 9.9 1.5 11.1 6.5 1.6 10.6-7.5 5-11.2-6-3.9-.6-14.4 7.5-14.4 3 0 4 .5 4.5 1.9.3 1.1 1.5 2.3 2.6 2.6 3 1 2.7 7.8-.6 9.9-3.3 2.2-3.5 7.8-.3 10 3 2.1 5.4 2 7.8-.4 2.7-2.7 2.5-6.4-.5-8.8-3.4-2.7-3.4-8.2 0-11.6 3.2-3.2 3.2-6 0-9.2-3.4-3.4-3.4-8.9 0-11.6 3-2.4 3.2-6.1.5-8.8-2.4-2.4-4.8-2.5-7.8-.4-3.2 2.2-3 7.8.3 10 3.3 2.1 3.6 8.9.6 9.9-1.1.3-2.3 1.5-2.6 2.6C49 30.5 48 31 45 31c-8.1 0-13.5-10.5-7.5-14.4 5.6-3.7 1.5-12.8-5-11.2-4.8 1.2-6 9.7-1.5 11.1 3.4 1.1 2.7 7.6-1.1 11.4-2.9 3-3.4 3.1-11.5 3.1H10v-6.4c0-5.7.3-6.5 2.5-8 3.3-2.2 3.5-7.8.3-10-3-2.1-5.4-2-7.8.4zm6.4 1.3c2.6 1.9 1.8 6.1-1.2 6.5-4.4.7-6.7-3.2-3.6-6.2 1.9-1.9 2.5-2 4.8-.3zm25.6.1c1.9 2.3.8 6.1-1.8 6.4-4.5.7-7.2-4.6-3.4-6.7 2.4-1.4 3.8-1.3 5.2.3zm20.4.2c3.1 3 .8 6.9-3.6 6.2-3-.4-3.8-4.6-1.2-6.5 2.3-1.7 2.9-1.6 4.8.3zM36.8 28.9c.8.5 1.2 2.1 1 3.7-.3 3.2-3.8 4.5-6.4 2.4-4-3.4.9-9 5.4-6.1zm21 .3c3 3 0 7.5-4.3 6.4-4.1-1.1-2.9-7.6 1.5-7.6.9 0 2.1.5 2.8 1.2zm-20 22.9c.4 3.6-2.1 5.5-5.3 4.1-4.4-2-2.4-7.6 2.5-7 1.8.2 2.6 1 2.8 2.9zM58 50.5c1.4 1.7.5 5.1-1.6 5.9-3.5 1.3-7.3-4.1-4.7-6.7 1.2-1.2 5-.7 6.3.8z"/></symbol><symbol viewBox="0 0 52.511 52.511" xml:space="preserve" id="viber" xmlns="http://www.w3.org/2000/svg"><path d="M31.256 0H21.254C10.778 0 2.255 8.521 2.255 18.995v9.01c0 7.8 4.793 14.81 12 17.665v5.841a.999.999 0 0 0 1.671.741L21.725 47h9.531c10.476 0 18.999-8.521 18.999-18.995v-9.01C50.255 8.521 41.732 0 31.256 0zm16.999 28.005C48.255 37.376 40.63 45 31.256 45h-9.917a.998.998 0 0 0-.671.259l-4.413 3.997v-4.279a.997.997 0 0 0-.667-.942 17.03 17.03 0 0 1-11.333-16.03v-9.01C4.255 9.624 11.881 2 21.254 2h10.002c9.374 0 16.999 7.624 16.999 16.995v9.01z"/><path d="m39.471 30.493-6.146-3.992a2.994 2.994 0 0 0-4.15.88l-.289.444c-2.66-.879-5.593-2.002-7.349-7.085l.727-.632a3.005 3.005 0 0 0 .294-4.233l-4.808-5.531a1.001 1.001 0 0 0-1.411-.099l-3.019 2.624c-2.648 2.302-1.411 5.707-1.004 6.826.018.05.04.098.066.145.105.188 2.612 4.662 6.661 8.786 4.065 4.141 11.404 7.965 11.629 8.076a5.006 5.006 0 0 0 6.916-1.47l2.178-3.354c.3-.465.168-1.084-.295-1.385zm-3.561 3.649c-.901 1.388-2.763 1.782-4.233.834-.073-.038-7.364-3.835-11.207-7.75-3.592-3.659-5.977-7.724-6.302-8.291-.792-2.221-.652-3.586.464-4.556l2.265-1.968 4.152 4.776a.99.99 0 0 1-.096 1.411l-1.227 1.066a.999.999 0 0 0-.3 1.049c2.092 6.798 6.16 8.133 9.13 9.108l.433.143a.996.996 0 0 0 1.155-.403l.709-1.092a.988.988 0 0 1 .63-.434.99.99 0 0 1 .753.143l5.308 3.447-1.634 2.517zM28.538 16.247a1 1 0 1 0-.548 1.923 4.524 4.524 0 0 1 3.097 3.104 1 1 0 0 0 1.925-.542 6.538 6.538 0 0 0-4.474-4.485z"/><path d="M36.148 22.219a1 1 0 0 0 .963-1.271c-1.18-4.183-4.509-7.519-8.689-8.709a1 1 0 0 0-.547 1.924c3.517 1 6.318 3.809 7.311 7.328a1 1 0 0 0 .962.728z"/><path d="M27.991 7.582a1 1 0 1 0-.548 1.924c5.959 1.695 10.706 6.453 12.388 12.416a1 1 0 0 0 1.925-.542c-1.869-6.627-7.143-11.913-13.765-13.798z"/></symbol><symbol viewBox="0 0 350 350" xml:space="preserve" id="welding" xmlns="http://www.w3.org/2000/svg"><path d="M86.78 318h110.437c10.907 0 19.781-8.874 19.781-19.781V107.98c0-10.907-8.874-19.781-19.781-19.781H86.78c-10.907 0-19.781 8.874-19.781 19.781v190.238c0 10.908 8.874 19.782 19.781 19.782zM74.999 107.98c0-6.496 5.285-11.781 11.781-11.781h110.437c6.496 0 11.781 5.285 11.781 11.781v190.238c0 6.496-5.285 11.781-11.781 11.781H86.78c-6.496 0-11.781-5.285-11.781-11.781V107.98z"/><path d="M84.999 145.039h57.982a4 4 0 0 0 4-4v-26.18a4 4 0 0 0-4-4H84.999a4 4 0 0 0-4 4v26.18a4 4 0 0 0 4 4zm4-26.18h49.982v18.18H88.999v-18.18zM161.499 118.859h37.742a4 4 0 0 0 0-8h-37.742a4 4 0 0 0 0 8zM161.499 131.949h37.742a4 4 0 0 0 0-8h-37.742a4 4 0 0 0 0 8zM161.499 145.039h37.742a4 4 0 0 0 0-8h-37.742a4 4 0 0 0 0 8zM177.499 248c11.579 0 21-9.421 21-21s-9.421-21-21-21c-11.58 0-21 9.421-21 21s9.42 21 21 21zm0-34c7.168 0 13 5.832 13 13s-5.832 13-13 13-13-5.832-13-13 5.831-13 13-13z"/><circle cx="177.499" cy="227" r="5.845"/><circle cx="177.499" cy="279" r="5.845"/><path d="M177.499 300c11.579 0 21-9.421 21-21s-9.421-21-21-21c-11.58 0-21 9.421-21 21s9.42 21 21 21zm0-34c7.168 0 13 5.832 13 13s-5.832 13-13 13-13-5.832-13-13 5.831-13 13-13zM145.499 275h-6v-6a4 4 0 0 0-8 0v6h-6a4 4 0 0 0 0 8h6v6a4 4 0 0 0 8 0v-6h6a4 4 0 0 0 0-8zM125.499 223a4 4 0 0 0 0 8h20a4 4 0 0 0 0-8h-20z"/><path d="M293.001 7h-8.369V4a4 4 0 0 0-8 0v3h-6.5V4a4 4 0 0 0-8 0v3h-122.13a4 4 0 0 0 0 8h122.13v6.906h-.27a4 4 0 0 0-4 4v117.832a4 4 0 0 0 4 4h7.52v86.48c0 19.54-15.897 35.437-35.438 35.437h-2.946V55a4 4 0 0 0-4-4h-170a4 4 0 0 0-4 4v273a4 4 0 0 0 4 4h8.5v14a4 4 0 0 0 4 4h17a4 4 0 0 0 4-4v-14h103v14a4 4 0 0 0 4 4h17a4 4 0 0 0 4-4v-14h8.5a4 4 0 0 0 4-4v-50.344h2.946c23.951 0 43.438-19.486 43.438-43.437v-86.48h7.52a4 4 0 0 0 4-4V25.906a4 4 0 0 0-4-4h-.27V15h8.369a4 4 0 0 0 0-8zM82.499 342h-9v-10h9v10zm128 0h-9v-10h9v10zm12.5-18h-162V59h162v265zm57.903-213.8h-15.039v-7h15.039v7zm-15.039 8h15.039v7h-15.039v-7zm15.039-88.294V95.2h-15.039V29.906h15.039zm-15.039 109.832V133.2h15.039v6.538h-15.039zm10.769-117.832h-6.5V15h6.5v6.906z"/></symbol><symbol viewBox="0 0 256 256" id="whatsapp" xmlns="http://www.w3.org/2000/svg"><path d="M128 28a100.026 100.026 0 0 0-86.885 149.54l-9.005 31.516a12 12 0 0 0 14.835 14.834l31.517-9.004A100.007 100.007 0 1 0 128 28Zm0 192a91.87 91.87 0 0 1-46.952-12.867 3.995 3.995 0 0 0-3.144-.408l-33.157 9.473a4 4 0 0 1-4.944-4.945l9.472-33.156a4.001 4.001 0 0 0-.408-3.144A92.01 92.01 0 1 1 128 220Zm50.512-73.457-20.46-11.691a12.01 12.01 0 0 0-12.127.129l-13.807 8.284a44.042 44.042 0 0 1-19.382-19.383l8.284-13.807a12.01 12.01 0 0 0 .128-12.127l-11.69-20.46A10.916 10.916 0 0 0 100 72a32.008 32.008 0 0 0-32 31.88A84.001 84.001 0 0 0 151.999 188h.12A32.008 32.008 0 0 0 184 156a10.913 10.913 0 0 0-5.488-9.457ZM152.108 180H152a76 76 0 0 1-76-76.107A23.997 23.997 0 0 1 100 80a2.9 2.9 0 0 1 2.512 1.457l11.69 20.461a4.004 4.004 0 0 1-.042 4.042l-9.39 15.648a3.999 3.999 0 0 0-.218 3.699 52.041 52.041 0 0 0 26.142 26.141 3.997 3.997 0 0 0 3.699-.218l15.647-9.39a4.006 4.006 0 0 1 4.043-.043l20.46 11.692A2.897 2.897 0 0 1 176 156a23.997 23.997 0 0 1-23.892 24Z"/></symbol></svg>